<svg xmlns="http://www.w3.org/2000/svg" viewBox="0 0 512 512" role="img" aria-labelledby="title desc">
  <title id="title">Civweave symbol</title>
  <desc id="desc">Transparent white Civweave globe-grid mark with a pixel-woven orbital frame.</desc>
  <defs>
    <clipPath id="globe-clip"><circle cx="512" cy="512" r="160"/></clipPath>
  </defs>
  <g transform="scale(.5)" fill="none" stroke="#f4f4ef" stroke-linecap="square" stroke-linejoin="miter">
    <g stroke-width="12">
      <circle cx="512" cy="512" r="160"/>
      <g clip-path="url(#globe-clip)">
        <ellipse cx="512" cy="512" rx="160" ry="52"/>
        <ellipse cx="512" cy="512" rx="160" ry="104"/>
        <ellipse cx="512" cy="512" rx="52" ry="160"/>
        <ellipse cx="512" cy="512" rx="104" ry="160"/>
        <path d="M352 512H672M512 352V672"/>
      </g>
    </g>
    <circle cx="512" cy="512" r="218" stroke-width="13" stroke-dasharray="76 18 20 22 54 18 20 24"/>
    <g stroke-width="13">
      <path d="M326 330h-44v44h-34M698 330h44v44h34M326 694h-44v-44h-34M698 694h44v-44h34"/>
      <path d="M360 292v-34h46v-24M664 292v-34h-46v-24M360 732v34h46v24M664 732v34h-46v24"/>
      <path d="M292 360h-34v46h-24M732 360h34v46h24M292 664h-34v-46h-24M732 664h34v-46h24"/>
    </g>
    <g fill="#f4f4ef" stroke="none">
      <rect x="232" y="500" width="22" height="22"/>
      <rect x="770" y="500" width="22" height="22"/>
      <rect x="501" y="232" width="22" height="22"/>
      <rect x="501" y="770" width="22" height="22"/>
      <rect x="286" y="286" width="18" height="18"/>
      <rect x="720" y="286" width="18" height="18"/>
      <rect x="286" y="720" width="18" height="18"/>
      <rect x="720" y="720" width="18" height="18"/>
    </g>
  </g>
</svg>
